<svg width="19" height="21" viewBox="0 0 19 21" fill="none" xmlns="http://www.w3.org/2000/svg">
<path d="M17.5347 0.180544C16.7301 0.360972 15.9218 0.542247 15.6212 1.03897L13.2941 5.41253L0.79919 8.21466L0.292949 9.61209L9.85436 10.4649L8.23212 14.2511L4.60602 15.0643L3.69562 16.5524L6.31158 16.8203L6.60988 18.0373C6.74352 18.4687 7.21259 18.7567 7.61297 18.6669L8.82168 18.3959L10.2228 20.6495L11.1332 19.1614L10.2383 15.5104L12.8637 12.3538L17.8731 20.647L18.8832 19.5659L15.8005 6.98894L18.6314 2.93169C18.9358 2.43411 18.7373 1.62405 18.5378 0.810181C18.439 0.40705 17.9351 0.0907537 17.5347 0.180544Z" fill="#1D2E5B"/>
</svg>
