<svg width="17" height="30" viewBox="0 0 17 30" fill="none" xmlns="http://www.w3.org/2000/svg">
<path d="M1.04432 29.1127C1.2163 29.2922 1.4206 29.4346 1.64553 29.5318C1.87046 29.6289 2.11159 29.679 2.35512 29.679C2.59864 29.679 2.83977 29.6289 3.0647 29.5318C3.28963 29.4346 3.49393 29.2922 3.66591 29.1127L15.9741 16.2995C16.1114 16.1569 16.2203 15.9874 16.2946 15.8009C16.369 15.6144 16.4072 15.4144 16.4072 15.2125C16.4072 15.0106 16.369 14.8106 16.2946 14.6241C16.2203 14.4375 16.1114 14.2681 15.9741 14.1255L3.66591 1.31227C2.94016 0.556738 1.77007 0.556738 1.04432 1.31227C0.318563 2.0678 1.48752 3.37782 2.21327 4.13335L12.8193 15.2125L1.64553 26.8667C0.934588 27.6068 0.318563 28.3726 1.04432 29.1127Z" fill="black"/>
</svg>
